<svg xmlns="http://www.w3.org/2000/svg" viewBox="0 0 422.87 390.98" fill="white"><g id="Warstwa_2" data-name="Warstwa 2"><path d="M69.84,310A183.05,183.05,0,0,1,28.77,194.6C28.77,93.89,110.72,12,211.43,12S394.09,93.89,394.09,194.6A183,183,0,0,1,353,310l-1.93-1.58a180.54,180.54,0,0,0,40.5-113.82c0-99.34-80.82-180.15-180.16-180.15S31.27,95.26,31.27,194.6A180.55,180.55,0,0,0,71.78,308.42Z"/><path d="M71.41,375.34c-4.29,1.75-8.65,3.57-13.33,3.57a26.2,26.2,0,1,1,0-52.39,30.26,30.26,0,0,1,13.39,3.57l.65.46L71,332c-4.16-1.75-8.32-3.57-12.94-3.57a24.28,24.28,0,1,0,0,48.56c4.62,0,8.78-1.82,12.94-3.58L72.19,375Z"/><path d="M58.08,379a26.33,26.33,0,1,1,0-52.65A30,30,0,0,1,71.53,330l.77.54-1.24,1.68-.48-.21c-4-1.67-8-3.4-12.5-3.4a24.16,24.16,0,1,0,0,48.31c4.45,0,8.55-1.73,12.51-3.4l.47-.2,1.33,1.76-1.19.49C67,377.27,62.7,379,58.08,379Zm0-52.4a26.08,26.08,0,1,0,0,52.15c4.57,0,8.87-1.76,13-3.47L72,375l-1-1.36-.29.13c-4,1.68-8.11,3.42-12.61,3.42a24.41,24.41,0,1,1,0-48.81c4.5,0,8.62,1.74,12.6,3.42l.3.13,1-1.31-.55-.38A29.67,29.67,0,0,0,58.08,326.64Z"/><path d="M76.41,363.9C76.41,355.83,82,349,90.06,349s13.65,6.82,13.65,14.89-5.59,14.62-13.65,14.62S76.41,372.09,76.41,363.9Zm2,0c0,6.88,4.75,12.67,11.7,12.67s11.64-5.79,11.64-12.67S97,351,90.06,351,78.36,356.87,78.36,363.9Z"/><path d="M90.06,378.65a13.3,13.3,0,0,1-9.94-4.29,15.39,15.39,0,0,1-3.83-10.46,15.82,15.82,0,0,1,3.83-10.55,13.3,13.3,0,0,1,19.89,0,15.82,15.82,0,0,1,3.83,10.55A15.35,15.35,0,0,1,100,374.36,13.27,13.27,0,0,1,90.06,378.65Zm0-29.52c-7.71,0-13.52,6.35-13.52,14.77s5.69,14.5,13.52,14.5,13.53-6.1,13.53-14.5S97.77,349.13,90.06,349.13Zm0,27.57c-6.74,0-11.82-5.51-11.82-12.8,0-7.45,5.08-13.07,11.82-13.07s11.76,5.62,11.76,13.07C101.82,371.19,96.77,376.7,90.06,376.7Zm0-25.62c-6.59,0-11.57,5.51-11.57,12.82,0,7.15,5,12.55,11.57,12.55s11.51-5.4,11.51-12.55C101.57,356.59,96.63,351.08,90.06,351.08Z"/><path d="M109.3,363.9c0-8.07,5.59-14.89,13.65-14.89s13.65,6.82,13.65,14.89S131,378.52,123,378.52,109.3,372.09,109.3,363.9Zm2,0c0,6.88,4.75,12.67,11.7,12.67s11.64-5.79,11.64-12.67S129.84,351,123,351,111.25,356.87,111.25,363.9Z"/><path d="M123,378.65a13.3,13.3,0,0,1-9.94-4.29,15.39,15.39,0,0,1-3.83-10.46A15.82,15.82,0,0,1,113,353.35a13.29,13.29,0,0,1,19.88,0,15.78,15.78,0,0,1,3.84,10.55,15.35,15.35,0,0,1-3.84,10.46A13.27,13.27,0,0,1,123,378.65Zm0-29.52c-7.71,0-13.52,6.35-13.52,14.77s5.69,14.5,13.52,14.5,13.53-6.1,13.53-14.5S130.66,349.13,123,349.13Zm0,27.57c-6.74,0-11.82-5.51-11.82-12.8,0-7.45,5.08-13.07,11.82-13.07s11.76,5.62,11.76,13.07C134.71,371.19,129.66,376.7,123,376.7Zm0-25.62c-6.6,0-11.57,5.51-11.57,12.82,0,7.15,5,12.55,11.57,12.55s11.51-5.4,11.51-12.55C134.46,356.59,129.52,351.08,123,351.08Z"/><path d="M164.75,378.26h-2.54l-11.89-14.17L146,368.32v9.94h-1.95V326.91H146v38.61l16.77-16.45h2.53l-13.65,13.72Z"/><path d="M165,378.39h-2.87l0-.05-11.81-14.07-4.16,4.1v10H144V326.78h2.2v38.44L162.75,349h2.88L151.85,362.8Zm-2.75-.25h2.21l-13-15.36.08-.08L165,349.2h-2.18L145.9,365.82V327h-1.7v51.11h1.7v-9.88l0,0,4.39-4.32Z"/><path d="M174.3,378.26V326.91H190a13.42,13.42,0,0,1,13.26,13.39,13.13,13.13,0,0,1-7.41,12.28c5.59,1.63,8.71,7.22,8.71,12.29a13.34,13.34,0,0,1-13.26,13.39Zm2.15-49.14v22.81h14.23c5.92,0,10.4-5.2,10.4-11.5A11.14,11.14,0,0,0,190,329.12Zm0,24.57v22.36h14.88a11.18,11.18,0,0,0,0-22.36Z"/><path d="M191.33,378.39H174.18V326.78H190a13.63,13.63,0,0,1,13.39,13.52,13.23,13.23,0,0,1-7.21,12.25c5.59,1.79,8.51,7.51,8.51,12.32A13.48,13.48,0,0,1,191.33,378.39Zm-16.9-.25h16.9a13.22,13.22,0,0,0,13.14-13.27c0-4.8-3-10.52-8.62-12.17l-.31-.08.29-.15a13,13,0,0,0,7.34-12.17A13.39,13.39,0,0,0,190,327h-15.6Zm16.9-2h-15V353.56h15a11.31,11.31,0,0,1,0,22.62Zm-14.76-.25h14.76a11.06,11.06,0,0,0,0-22.12H176.57Zm14.11-23.87H176.32V329H190a11.33,11.33,0,0,1,11.18,11.44C201.21,347,196.59,352.06,190.68,352.06Zm-14.11-.25h14.11c5.76,0,10.28-5,10.28-11.38A11.07,11.07,0,0,0,190,329.24H176.57Z"/><path d="M237.48,378.26v-7.15c-3.12,4.75-7.41,7.41-12.28,7.41-8.13,0-14.11-6.63-14.11-14.62s6-14.63,14.11-14.63c4.87,0,9.16,2.66,12.28,7.41v-7.15h2v28.73ZM213,363.9c0,6.82,5.14,12.67,12.16,12.67a12.38,12.38,0,0,0,12.15-12.67c0-6.9-5.33-12.68-12.15-12.68C218.18,351.22,213,357.07,213,363.9Z"/><path d="M225.2,378.65c-8,0-14.23-6.48-14.23-14.75s6.25-14.76,14.23-14.76c4.71,0,9,2.53,12.16,7.13V349.4h2.2v29h-2.2v-6.87C234.21,376.12,229.91,378.65,225.2,378.65Zm0-29.26c-7.84,0-14,6.37-14,14.51s6.14,14.5,14,14.5c4.73,0,9.06-2.62,12.18-7.36l.23-.35v7.45h1.7V349.65h-1.7v7.45l-.23-.35C234.26,352,229.93,349.39,225.2,349.39Zm0,27.31c-6.89,0-12.28-5.63-12.28-12.8s5.39-12.81,12.28-12.81a12.82,12.82,0,0,1,0,25.61Zm0-25.36c-6.75,0-12,5.52-12,12.56s5.28,12.55,12,12.55a12.57,12.57,0,0,0,0-25.11Z"/><path d="M250.09,378.26V326.91H252v51.35Z"/><path d="M252.17,378.39H250V326.78h2.2Zm-1.95-.25h1.7V327h-1.7Z"/><path d="M287.53,378.26v-7.15c-3.12,4.75-7.41,7.41-12.28,7.41-8.13,0-14.11-6.63-14.11-14.62s6-14.63,14.11-14.63c4.87,0,9.16,2.66,12.28,7.41v-7.15h2v28.73ZM263.09,363.9c0,6.82,5.14,12.67,12.16,12.67A12.38,12.38,0,0,0,287.4,363.9c0-6.9-5.33-12.68-12.15-12.68C268.23,351.22,263.09,357.07,263.09,363.9Z"/><path d="M275.25,378.65c-8,0-14.24-6.48-14.24-14.75s6.26-14.76,14.24-14.76c4.7,0,9,2.53,12.16,7.13V349.4h2.2v29h-2.2v-6.87C284.26,376.12,280,378.65,275.25,378.65Zm0-29.26c-7.84,0-14,6.37-14,14.51s6.15,14.5,14,14.5c4.73,0,9.06-2.62,12.18-7.36l.23-.35v7.45h1.7V349.65h-1.7v7.45l-.23-.35C284.31,352,280,349.39,275.25,349.39Zm0,27.31c-6.89,0-12.28-5.63-12.28-12.8s5.39-12.81,12.28-12.81a12.82,12.82,0,0,1,0,25.61Zm0-25.36c-6.75,0-12,5.52-12,12.56s5.28,12.55,12,12.55a12.57,12.57,0,0,0,0-25.11Z"/><path d="M319.83,378.26V359.41a7.78,7.78,0,0,0-7.67-7.74c-4.22,0-9.62,2.54-9.62,6.76v19.83h-1.88V349.92h1.88v3.64c2.15-2.8,6.89-3.77,9.62-3.77a9.23,9.23,0,0,1,9.56,9.62v18.85Z"/><path d="M321.85,378.39h-2.14v-19a7.67,7.67,0,0,0-7.54-7.61c-3.89,0-9.5,2.36-9.5,6.63v20h-2.14v-28.6h2.14v3.42c2.41-2.8,7.22-3.55,9.5-3.55a9.41,9.41,0,0,1,9.68,9.75Zm-1.89-.25h1.64V359.41a9.06,9.06,0,0,0-9.43-9.5c-2.31,0-7.27.78-9.53,3.73l-.22.29V350h-1.64v28.1h1.64V358.43c0-4.43,5.76-6.88,9.75-6.88a7.93,7.93,0,0,1,7.79,7.86Z"/><path d="M352.59,374.3c-2.47,3.12-6.24,4.22-10.14,4.22-7.93,0-13.84-6.57-13.84-14.69s5.91-14.76,13.84-14.76c3.9,0,7.74,1.24,10.14,4.23l.52.65-1.43,1.36-.45-.58a12.25,12.25,0,0,0-8.78-3.71c-6.82,0-11.83,5.79-11.83,12.81s5,12.74,11.83,12.74c3.32,0,6.63-1,8.78-3.71l.45-.58,1.43,1.37Z"/><path d="M342.45,378.65c-7.83,0-14-6.51-14-14.82s6.14-14.88,14-14.88c4.39,0,8,1.52,10.24,4.27l.59.74-1.61,1.54-.54-.69a12.07,12.07,0,0,0-8.68-3.66c-6.56,0-11.7,5.57-11.7,12.68s5.14,12.62,11.7,12.62c2.65,0,6.31-.64,8.68-3.66l.54-.7,1.61,1.54-.59.74C350.48,377.17,346.94,378.65,342.45,378.65Zm0-29.45c-7.69,0-13.72,6.43-13.72,14.63s6,14.57,13.72,14.57c4.47,0,7.85-1.41,10.05-4.18h0l.45-.56-1.25-1.19-.37.47c-2.44,3.1-6.17,3.76-8.88,3.76-6.7,0-11.95-5.66-11.95-12.87s5.25-12.93,11.95-12.93a12.34,12.34,0,0,1,8.87,3.74l.38.49,1.25-1.19-.45-.56C350.33,350.68,346.76,349.2,342.45,349.2Z"/><path d="M388.28,365H362.15c.58,6.7,5.46,11.57,11.83,11.57,3,0,6.69-.46,9.29-2.67l1.43,1.44c-3.12,2.53-7.28,3.18-10.72,3.18a13.47,13.47,0,0,1-13.85-14.37c0-8.06,5.72-14.56,13.85-14.56a15,15,0,0,1,10.66,4.75v.06c2.47,2.86,4,6.05,3.7,9.69Zm-26.13-1.89h24.18A12.55,12.55,0,0,0,374,351.61C367.61,351.61,362.73,356.55,362.15,363.11Z"/><path d="M374,378.65a14.28,14.28,0,0,1-9.77-3.74c-2.79-2.67-4.2-6.29-4.2-10.76,0-8.37,6-14.68,14-14.68,3.89,0,7.5,1.61,10.75,4.78l0,0v.07c2.74,3.18,3.95,6.36,3.71,9.74l-.07,1H362.29c.63,6.57,5.53,11.33,11.69,11.33,4.06,0,7.16-.89,9.21-2.64l.09-.07,1.61,1.61-.11.08C382.16,377.56,378.52,378.65,374,378.65Zm0-28.93c-7.82,0-13.72,6.21-13.72,14.43,0,4.4,1.38,8,4.12,10.58a14,14,0,0,0,9.6,3.67c4.42,0,8-1,10.54-3.07l-1.25-1.26c-2.13,1.77-5.17,2.63-9.29,2.63-6.34,0-11.36-4.92-12-11.69v-.14h26.15l.06-.79c.24-3.32-1-6.46-3.67-9.59l0,0v-.06A14.87,14.87,0,0,0,374,349.72Zm12.49,13.52H362v-.14c.6-6.73,5.63-11.62,12-11.62a12.65,12.65,0,0,1,12.47,11.62ZM362.29,363h23.9A12.39,12.39,0,0,0,374,351.73C367.83,351.73,362.93,356.46,362.29,363Z"/><path d="M123.12,214.1c-.61-.37-1.17-.84-1.84-1.24a10.42,10.42,0,0,0-2.09-.91,16.55,16.55,0,0,0-4.4-.79,29.3,29.3,0,0,1,4.2,1.32,12.83,12.83,0,0,1,1.92,1c.58.38,1.17.86,1.81,1.28a6.23,6.23,0,0,0,2.16.86,14.51,14.51,0,0,0,2.26.21,36.72,36.72,0,0,0,4.45-.2l-4.41-.38A8.7,8.7,0,0,1,123.12,214.1Z"/><path d="M300.15,214.74c.64-.42,1.22-.9,1.81-1.28a12.73,12.73,0,0,1,1.91-1,29.84,29.84,0,0,1,4.21-1.32,16.55,16.55,0,0,0-4.4.79,10.42,10.42,0,0,0-2.09.91c-.67.4-1.23.87-1.84,1.24a8.74,8.74,0,0,1-4.06,1.13l-4.41.38a36.54,36.54,0,0,0,4.45.2,14.38,14.38,0,0,0,2.25-.21A6.28,6.28,0,0,0,300.15,214.74Z"/><path d="M178.21,110.9l3.15,6a57.74,57.74,0,0,1,2.84,6,18.28,18.28,0,0,1,1.45,6.35,11.67,11.67,0,0,1-1.72,6.32,11.22,11.22,0,0,0,2.61-6.28,18.44,18.44,0,0,0-.86-6.89c-1.33-4.44-3.44-8.49-5.25-12.57A61,61,0,0,1,176,97.42a29.07,29.07,0,0,1,0-12.76c2.28-8.3,6.44-16.56,13-22.3a28.48,28.48,0,0,1,11.46-6.11,24,24,0,0,1,6.55-.8,15.26,15.26,0,0,1,3.29.4,7,7,0,0,1,1.56.54c.47.25,1,.58,1.06,1.17,0-.6-.5-1-1-1.35a7.64,7.64,0,0,0-1.55-.75,15.45,15.45,0,0,0-3.36-.77,23.79,23.79,0,0,0-6.89.24,28.46,28.46,0,0,0-12.56,5.73,37.62,37.62,0,0,0-9.06,10.53,49.94,49.94,0,0,0-3.14,6.19c-.45,1.06-.86,2.14-1.25,3.22a32.2,32.2,0,0,0-1,3.38,30.1,30.1,0,0,0,0,14.06A56,56,0,0,0,178.21,110.9Z"/><path d="M210.88,72.85a16.25,16.25,0,0,1-2,1.25c-.73.4-1.5.82-2.23,1.25a54.6,54.6,0,0,0-8.36,6,35.48,35.48,0,0,0-6.76,8,23.25,23.25,0,0,0-3.28,10.14,21.21,21.21,0,0,0,.35,5.35,40.78,40.78,0,0,0,1.3,5,46.39,46.39,0,0,0,1.88,4.8,49,49,0,0,0,2.4,4.54,42,42,0,0,0,6.18,8.07,62.44,62.44,0,0,1-8.12-18.09c-.21-.79-.35-1.6-.55-2.39s-.27-1.6-.42-2.4a19.93,19.93,0,0,1-.15-4.69,19.31,19.31,0,0,1,1.4-5.68,33.58,33.58,0,0,0,.92,5,28.57,28.57,0,0,0,3.57,8,21,21,0,0,0,6.23,6.25c.09.06.19.1.27.16s.1.41.13.62a18.14,18.14,0,0,1,.24,2.76c.05,1.86,0,3.73-.06,5.64a17.17,17.17,0,0,0,.81-5.66,11.25,11.25,0,0,0-.42-2.87l0-.1a15,15,0,0,0,7.53,1.85,14.73,14.73,0,0,0,7.08-2.2c-.06.15-.11.3-.16.45a11.7,11.7,0,0,0-.41,2.87,16.91,16.91,0,0,0,.81,5.66c0-1.91-.11-3.78-.06-5.64a19.51,19.51,0,0,1,.23-2.76c.07-.34.14-.67.24-1,.14-.09.27-.17.4-.27a20.68,20.68,0,0,0,5.65-6.32,28.7,28.7,0,0,0,3.15-7.8,33.78,33.78,0,0,0,1-7.56,25,25,0,0,1,.88,4.38,43.78,43.78,0,0,1-1.82,16.26,92.34,92.34,0,0,1-6.19,15.54,63.85,63.85,0,0,0,7.64-15.08,40.43,40.43,0,0,0,2.35-16.93A22.41,22.41,0,0,0,230,86.94a17.47,17.47,0,0,0-6-6.4,50.23,50.23,0,0,1-6.69-4.88,21.06,21.06,0,0,1-2.8-3l-.27-.4a11.07,11.07,0,0,0,1.21-2.08,10.09,10.09,0,0,0,.69-5.27,11.36,11.36,0,0,0-1.86-4.77,10,10,0,0,1-3.39,12.73Zm5.67,3.57a42.9,42.9,0,0,0,6.52,5.52,16.16,16.16,0,0,1,5.23,5.91,17.43,17.43,0,0,1,1.33,3.26,33.73,33.73,0,0,1-1.09,7.56,27,27,0,0,1-3.39,7.61,19.33,19.33,0,0,1-5.8,5.8,13.58,13.58,0,0,1-7.63,2.15,13.39,13.39,0,0,1-7.3-2.65,19.34,19.34,0,0,1-5.22-5.87,27.1,27.1,0,0,1-3-7.39,32.63,32.63,0,0,1-1-7.94c0-.44,0-.87,0-1.31a36,36,0,0,1,4.92-5.58A56.41,56.41,0,0,1,208,77.43c.69-.47,1.37-.9,2.09-1.36a19.23,19.23,0,0,0,2.15-1.59,13.42,13.42,0,0,0,1.68-1.77A1.83,1.83,0,0,0,214,73,19.2,19.2,0,0,0,216.55,76.42Z"/><path d="M185.12,219.87a75.65,75.65,0,0,1-11.38,21.33A54.88,54.88,0,0,0,188.09,221a43.65,43.65,0,0,0,2-6,43.07,43.07,0,0,0,1.13-6.3,37.45,37.45,0,0,0-1-12.86,35.31,35.31,0,0,0-2.23-6.1c-.44-1-1-1.93-1.49-2.87s-1-1.73-1.49-2.61a33.41,33.41,0,0,1-4-10.91,17,17,0,0,1,.13-5.64,18.44,18.44,0,0,1,2-5.42c.92-1.77,2.11-3.43,3.18-5.22a13.1,13.1,0,0,0,2.22-5.79,14,14,0,0,1-3.1,5.17c-1.31,1.55-2.69,3.1-3.92,4.83a20.1,20.1,0,0,0-2.88,5.81,18.26,18.26,0,0,0-.68,6.57,33.17,33.17,0,0,0,3.71,12.32c.46.93,1,1.9,1.46,2.78s.91,1.72,1.3,2.61a32.24,32.24,0,0,1,1.91,5.47,37.9,37.9,0,0,1,1,5.71,39.12,39.12,0,0,1,0,5.83A47.51,47.51,0,0,1,185.12,219.87Z"/><path d="M237.86,184.16c-.48.88-1,1.68-1.49,2.61s-1.05,1.89-1.5,2.87a36.16,36.16,0,0,0-2.23,6.1,37.44,37.44,0,0,0-1,12.86,41.78,41.78,0,0,0,1.13,6.3,43.65,43.65,0,0,0,2,6,54.77,54.77,0,0,0,14.35,20.25,75.43,75.43,0,0,1-11.39-21.33,47.49,47.49,0,0,1-2.27-11.59,39.12,39.12,0,0,1,0-5.83,37.9,37.9,0,0,1,1-5.71,32.24,32.24,0,0,1,1.91-5.47c.39-.89.84-1.76,1.3-2.61s1-1.85,1.46-2.78a33.17,33.17,0,0,0,3.71-12.32,18.26,18.26,0,0,0-.68-6.57,20.1,20.1,0,0,0-2.88-5.81c-1.23-1.73-2.61-3.28-3.92-4.83a14.17,14.17,0,0,1-3.11-5.17,13.12,13.12,0,0,0,2.23,5.79c1.07,1.79,2.26,3.45,3.17,5.22a18.47,18.47,0,0,1,2,5.42,17.5,17.5,0,0,1,.13,5.64A33.64,33.64,0,0,1,237.86,184.16Z"/><path d="M152.12,213.79a18.25,18.25,0,0,0,7.16-4.45,17.83,17.83,0,0,0,4.14-7.46,36.81,36.81,0,0,0,1.35-8.26c.17-2.76.18-5.5.14-8.22-.06-5.45-.35-10.84-.32-16.21s0-10.77,1.4-15.72a20.82,20.82,0,0,1,3.24-6.84,19.34,19.34,0,0,1,5.65-5,40.82,40.82,0,0,1,7.19-3.27c2.51-.94,5.09-1.79,7.64-2.78a35.5,35.5,0,0,0,7.32-3.78,19.85,19.85,0,0,0,5.62-5.93,21,21,0,0,1-6.08,5.2,36.41,36.41,0,0,1-7.37,3.07c-5.09,1.63-10.51,2.68-15.51,5.4A20.69,20.69,0,0,0,167.1,145a22.62,22.62,0,0,0-3.87,7.66,38.33,38.33,0,0,0-1.41,8.31c-.17,2.77-.23,5.48-.21,8.21,0,5.46.3,10.89.52,16.27.1,2.69.16,5.37.06,8a37.82,37.82,0,0,1-1,7.78,16.47,16.47,0,0,1-3.35,6.79,17,17,0,0,1-6.27,4.41c-4.87,2.07-10.33,2.71-15.72,3.13C141.29,215.8,146.82,215.59,152.12,213.79Z"/><path d="M347.37,213a.93.93,0,0,1-.15.13c-.11.08-.23.15-.35.22l-.74.37c-.49.24-1,.46-1.5.68a9.82,9.82,0,0,1-1.51.54c-.54.09-1.06.21-1.6.27-2.17.28-4.37.45-6.58.64a93.81,93.81,0,0,0-13.22,2,33.16,33.16,0,0,0-12.56,5.46l-.36.26-.18.13-.1.07a4.18,4.18,0,0,1-.51.29,10.13,10.13,0,0,1-1.36.55,31.54,31.54,0,0,1-3,.88c-2.09.51-4.23.91-6.38,1.25-4.3.71-8.65,1.18-13,1.48a127.12,127.12,0,0,1-13.09.31,57.14,57.14,0,0,1-12.87-1.71,17.79,17.79,0,0,1-5.83-2.63,7.63,7.63,0,0,1-3.26-5.35,7.35,7.35,0,0,0,.67,3.27,9.11,9.11,0,0,0,2.06,2.72,18.22,18.22,0,0,0,5.9,3.39,49.48,49.48,0,0,0,12.34,2.56,86.09,86.09,0,0,0-8.58,5.81,123.92,123.92,0,0,0-10,8.72c-6.42,6-12.57,12.27-18.8,18.4S220.33,276,213,280.31c-.52.32-1,.61-1.57.9-.53-.29-1.06-.58-1.57-.9-7.34-4.35-13.57-10.53-19.8-16.64s-12.37-12.41-18.79-18.4a125.67,125.67,0,0,0-10-8.72,87.41,87.41,0,0,0-8.59-5.81,49.63,49.63,0,0,0,12.36-2.56,18.22,18.22,0,0,0,5.9-3.39,8.91,8.91,0,0,0,2.05-2.72,7.23,7.23,0,0,0,.68-3.27,7.65,7.65,0,0,1-3.27,5.35,17.74,17.74,0,0,1-5.82,2.63,57.21,57.21,0,0,1-12.87,1.71,127.12,127.12,0,0,1-13.09-.31c-4.36-.3-8.72-.77-13-1.48-2.15-.34-4.29-.74-6.38-1.25-1-.25-2.07-.54-3.05-.88a11.33,11.33,0,0,1-1.36-.55,5.13,5.13,0,0,1-.51-.29l-.09-.07-.18-.13-.36-.26a33.16,33.16,0,0,0-12.56-5.46,93.81,93.81,0,0,0-13.22-2c-2.21-.19-4.41-.36-6.58-.64-.54-.06-1.06-.18-1.6-.27a9.12,9.12,0,0,1-1.51-.54c-.51-.22-1-.44-1.51-.68l-.73-.37c-.12-.07-.24-.14-.35-.22a.93.93,0,0,1-.15-.13c-.06,0-.07-.14,0-.14-.09,0-.1.11,0,.15a.77.77,0,0,0,.15.16,4.15,4.15,0,0,0,.32.27c.22.17.45.33.68.48.47.31.94.6,1.41.88a10,10,0,0,0,1.54.76c.54.15,1.08.34,1.62.46,2.18.54,4.37.88,6.54,1.29a114.93,114.93,0,0,1,12.82,2.79,32.49,32.49,0,0,1,11.4,5.42l.69.53a5.48,5.48,0,0,0,.91.56,15.84,15.84,0,0,0,1.69.72c1.11.4,2.21.71,3.31,1,2.2.56,4.4,1,6.61,1.36a116.05,116.05,0,0,0,24.91,1.29,102,102,0,0,1,19.57,16c6.2,6.17,12.27,12.45,18.42,18.73,3.08,3.13,6.23,6.21,9.54,9.17a72.91,72.91,0,0,0,10.59,8,46,46,0,0,1-6.89,2.39A61.13,61.13,0,0,1,188.61,287a110.64,110.64,0,0,1-11.37-.09l-14-8.23-14.57-8.45c-2.45-1.39-4.81-2.83-7.22-4.25-1.22-.68-2.34-1.5-3.53-2.24s-2.35-1.48-3.5-2.27c-2.25-1.63-4.56-3.19-6.68-5l-1.63-1.3c-.54-.43-1-.92-1.55-1.38a36.83,36.83,0,0,1-3-2.89l-1.42-1.51-1.28-1.62-.64-.82-.54-.87-.55-.87a5.63,5.63,0,0,1-.49-.9,12.56,12.56,0,0,1-1.32-3.88,6.33,6.33,0,0,1,.48-4,6.52,6.52,0,0,0-.93,4.09,13.14,13.14,0,0,0,1,4.17,14.32,14.32,0,0,0,.92,1.94l.51,1,.59.89,1.2,1.78,1.35,1.66a76.39,76.39,0,0,0,12.58,11.47c2.3,1.65,4.6,3.3,7,4.83s4.79,3,7.19,4.47l14.48,8.59q4.47,2.61,9,5.19c-2.7-.22-5.41-.48-8.11-.78-4.19-.46-9.15-1.34-13.52,1.08a7.36,7.36,0,0,0-2.67,2.59,6.66,6.66,0,0,0-.9,3.62,10.67,10.67,0,0,0,2.73,6.42A22.14,22.14,0,0,0,159.75,306a34.86,34.86,0,0,0,13.14.63A37.23,37.23,0,0,1,160,305.26a21,21,0,0,1-10.58-6.81,9.27,9.27,0,0,1-2.16-5.53,4.92,4.92,0,0,1,.75-2.64,5.53,5.53,0,0,1,2.07-1.85,12.5,12.5,0,0,1,5.88-1.17,23.86,23.86,0,0,1,3.14.25l3.25.45c4.35.62,8.73,1.14,13.13,1.46a119.86,119.86,0,0,0,13.28.39A61.46,61.46,0,0,0,202,288a46.46,46.46,0,0,0,12.5-5.15,72.62,72.62,0,0,0,10.72-8c3.31-3,6.46-6,9.54-9.17,6.15-6.28,12.22-12.56,18.43-18.73a102,102,0,0,1,19.56-16,116.24,116.24,0,0,0,24.93-1.29c2.21-.36,4.41-.8,6.61-1.36,1.1-.28,2.2-.59,3.31-1a15.84,15.84,0,0,0,1.69-.72,5.92,5.92,0,0,0,.91-.56l.69-.53a32.49,32.49,0,0,1,11.4-5.42,114.93,114.93,0,0,1,12.82-2.79c2.17-.41,4.36-.75,6.53-1.29.55-.12,1.09-.31,1.63-.46a9.91,9.91,0,0,0,1.53-.76c.48-.28.95-.57,1.42-.88.23-.15.46-.31.68-.48a4.15,4.15,0,0,0,.32-.27.73.73,0,0,0,.14-.16c.06,0,.05-.17,0-.15C347.44,212.83,347.43,212.93,347.37,213Z"/><path d="M307.48,240.44a12.56,12.56,0,0,1-1.32,3.88,5.63,5.63,0,0,1-.49.9l-.55.87-.54.87-.64.82-1.27,1.62-1.43,1.51a36.83,36.83,0,0,1-3,2.89c-.52.46-1,.95-1.54,1.38l-1.63,1.3c-2.13,1.78-4.44,3.34-6.69,5-1.14.79-2.34,1.51-3.5,2.27s-2.31,1.56-3.52,2.24c-2.41,1.42-4.78,2.86-7.22,4.25l-14.58,8.45-14.5,8.53c-4.83,2.83-9.7,5.57-14.64,8.17a108.88,108.88,0,0,1-15.3,6.62,68.53,68.53,0,0,1-16.37,3.36,57,57,0,0,0,12.68-1,56.92,56.92,0,0,0,12.61,1,69.91,69.91,0,0,1-10-1.58c.51-.11,1-.23,1.52-.36a95.37,95.37,0,0,0,15.91-5.94c5.13-2.39,10.08-5.1,15-7.8l.35-.2.56,0c4.4-.32,8.78-.84,13.13-1.46l3.26-.45a23.58,23.58,0,0,1,3.13-.25,12.5,12.5,0,0,1,5.88,1.17,5.53,5.53,0,0,1,2.07,1.85,4.92,4.92,0,0,1,.75,2.64,9.25,9.25,0,0,1-2.15,5.53,21.12,21.12,0,0,1-10.59,6.81A37.23,37.23,0,0,1,250,306.65,34.86,34.86,0,0,0,263.1,306a22.14,22.14,0,0,0,11.51-6.66,10.74,10.74,0,0,0,2.74-6.42,6.76,6.76,0,0,0-.91-3.62,7.28,7.28,0,0,0-2.67-2.59c-4.37-2.42-9.32-1.54-13.51-1.08-2.7.3-5.4.55-8.1.78q4.48-2.58,9-5.19l14.48-8.59c2.41-1.44,4.8-3,7.2-4.47s4.68-3.18,7-4.83a76.32,76.32,0,0,0,12.57-11.47l1.35-1.66,1.2-1.78.6-.89.5-1a15.69,15.69,0,0,0,.93-1.94,13.13,13.13,0,0,0,1-4.17,6.52,6.52,0,0,0-.93-4.09A6.26,6.26,0,0,1,307.48,240.44Z"/><path d="M217.91,58.36a4.76,4.76,0,0,1,1.36-.61,8.35,8.35,0,0,1,2.94-.34,12.32,12.32,0,0,1,5.57,1.72,22.21,22.21,0,0,1,7.85,8.62A51.19,51.19,0,0,1,240,78.87c.51,1.94,1,3.9,1.39,5.87a46.92,46.92,0,0,1,.77,5.9c.6,8-1.19,15.88-3.37,23.74A104.41,104.41,0,0,0,236,126.45a27.48,27.48,0,0,0-.2,6.28,15.7,15.7,0,0,0,.37,2.14c-.83-.24-1.66-.49-2.47-.75a36.41,36.41,0,0,1-7.37-3.07,21,21,0,0,1-6.08-5.2,19.69,19.69,0,0,0,5.61,5.93,35.83,35.83,0,0,0,7.33,3.78c2.55,1,5.13,1.84,7.64,2.78a40.72,40.72,0,0,1,7.18,3.27,19.38,19.38,0,0,1,5.66,5,20.78,20.78,0,0,1,3.24,6.85c1.44,4.94,1.34,10.33,1.4,15.71S258,180,258,185.4c0,2.72,0,5.46.15,8.22a36.81,36.81,0,0,0,1.35,8.26,17.83,17.83,0,0,0,4.14,7.46,18.18,18.18,0,0,0,7.16,4.45c5.3,1.8,10.83,2,16.23,1.81-5.38-.42-10.84-1.06-15.71-3.13a16.94,16.94,0,0,1-6.27-4.41,16.61,16.61,0,0,1-3.36-6.79,38.51,38.51,0,0,1-1-7.78c-.1-2.66,0-5.34.06-8,.22-5.38.47-10.81.51-16.27,0-2.73,0-5.44-.2-8.21a38.33,38.33,0,0,0-1.41-8.31,22.8,22.8,0,0,0-3.87-7.66,20.79,20.79,0,0,0-6.59-5.49c-4-2.18-8.29-3.29-12.45-4.48a24.22,24.22,0,0,1,.7-8.31c.93-3.93,2.36-7.76,3.64-11.67a93.75,93.75,0,0,0,3.28-12,52,52,0,0,0,.82-12.6,51.49,51.49,0,0,0-.9-6.29c-.43-2.05-.93-4.07-1.55-6.07a48.54,48.54,0,0,0-5.1-11.52,22.72,22.72,0,0,0-9.18-8.71,13.14,13.14,0,0,0-6.25-1.26,9,9,0,0,0-3.08.74,5.57,5.57,0,0,0-1.34.86A2.15,2.15,0,0,0,217,59.5,2.06,2.06,0,0,1,217.91,58.36Z"/><path d="M137.33,204.26a12.6,12.6,0,0,1-2.62,1.56,35.84,35.84,0,0,1-5.77,2,92.54,92.54,0,0,1-12,2.2,186,186,0,0,1-24.41,1.13,191.55,191.55,0,0,1-24.31-1.84,96.8,96.8,0,0,1-11.88-2.38,35.07,35.07,0,0,1-5.6-2,11.26,11.26,0,0,1-2.41-1.45,1.92,1.92,0,0,1,0-3.53,11.51,11.51,0,0,1,2.41-1.45,35.07,35.07,0,0,1,5.6-2,93,93,0,0,1,11.06-2.25l0,.06a13.19,13.19,0,0,0,3.74,4.46,16.29,16.29,0,0,0,3,1.8l-.1.08a1.45,1.45,0,0,0-.63,1,1.47,1.47,0,0,1,.64-1,1.25,1.25,0,0,1,.12-.08,18.12,18.12,0,0,0,2.13.9,33.43,33.43,0,0,0,5.52,1.43,75.42,75.42,0,0,0,22.45,0,34.69,34.69,0,0,0,5.52-1.42c.34-.12.68-.26,1-.4a.7.7,0,0,1-.05,1.28,4.72,4.72,0,0,1-1,.59,14.61,14.61,0,0,1-2.3.83,37.91,37.91,0,0,1-4.9,1,77.94,77.94,0,0,1-10,.79,75.27,75.27,0,0,1-10.07-.44,37.65,37.65,0,0,1-5-.91,14,14,0,0,1-2.39-.82,4.73,4.73,0,0,1-1.08-.64,1.45,1.45,0,0,1-.64-1,1.47,1.47,0,0,0,.63,1.06,4.92,4.92,0,0,0,1.08.65,14.39,14.39,0,0,0,2.38.86,39.57,39.57,0,0,0,5,1,81,81,0,0,0,10.09.79,76.61,76.61,0,0,0,10.15-.44,37.85,37.85,0,0,0,5-.93,14.44,14.44,0,0,0,2.47-.85,5.61,5.61,0,0,0,1.19-.7,2,2,0,0,0,.82-1.43,1.73,1.73,0,0,0-.43-1,16.88,16.88,0,0,0,3.13-1.88,13.32,13.32,0,0,0,3.74-4.47c.11-.21.19-.42.29-.63a84.19,84.19,0,0,1,10.06,1.93,35.8,35.8,0,0,1,5.77,2,12.6,12.6,0,0,1,2.62,1.56,3.56,3.56,0,0,1,1.54,2.53,3.57,3.57,0,0,0-1.53-2.54,12.42,12.42,0,0,0-2.62-1.58,35.55,35.55,0,0,0-5.76-2.05,94.05,94.05,0,0,0-10-2.09,18.83,18.83,0,0,0,1.31-4.6,64.62,64.62,0,0,0,.37-10.84h0l0,0a.13.13,0,0,0,0-.06h0a.64.64,0,0,1,0,.07,3.64,3.64,0,0,1-1.25,1,10.76,10.76,0,0,1-1.35.58,31.19,31.19,0,0,1-3.42.88c-1.68.33-3.37.55-5.07.73l-1.45.12-.63.08a138,138,0,0,1-13.94.29c-4.7-.12-9.39-.44-14-1-2.32-.27-4.63-.63-6.89-1.11a28.7,28.7,0,0,1-3.28-.88,9.16,9.16,0,0,1-1.44-.64,1.8,1.8,0,0,1-.5-.37.17.17,0,0,1-.06-.06l.06-.07a2,2,0,0,1,.5-.36,8.68,8.68,0,0,1,1.44-.64,26.78,26.78,0,0,1,3.28-.88c2.26-.48,4.57-.84,6.89-1.11,4.64-.57,9.32-.9,14-1a138.25,138.25,0,0,1,14.1.3,68.55,68.55,0,0,1,7,.92,29.08,29.08,0,0,1,3.42.88,9.56,9.56,0,0,1,1.61.7,3.1,3.1,0,0,1,.81.63h0a3,3,0,0,0-.81-.65,10.55,10.55,0,0,0-1.61-.72,30.62,30.62,0,0,0-3.41-.92c-2.31-.49-4.64-.84-7-1.12-4.68-.58-9.4-.9-14.12-1a137.42,137.42,0,0,0-14.2.31,68.84,68.84,0,0,0-7.09.94,31.37,31.37,0,0,0-3.55.91,11.44,11.44,0,0,0-1.79.78,4.33,4.33,0,0,0-.92.68,2.08,2.08,0,0,0-.68,1.47c0,.1,0,.19,0,.28a65.34,65.34,0,0,0,.38,10.9,20.05,20.05,0,0,0,1,3.75,87.84,87.84,0,0,0-10.85,2,36.73,36.73,0,0,0-5.94,2.07,13.34,13.34,0,0,0-2.82,1.69c-.23.18-.44.39-.66.59a7.22,7.22,0,0,0-.59.73,3.69,3.69,0,0,0-.66,2,3.77,3.77,0,0,0,.66,2,6.26,6.26,0,0,0,.59.73c.22.2.43.42.66.6a13.72,13.72,0,0,0,2.82,1.68,36.73,36.73,0,0,0,5.94,2.07A92.28,92.28,0,0,0,68,211a188.25,188.25,0,0,0,24.54,1.14A195.93,195.93,0,0,0,117,210.31a98.19,98.19,0,0,0,12-2.41,35.55,35.55,0,0,0,5.76-2.05,12.38,12.38,0,0,0,2.62-1.57,3.59,3.59,0,0,0,1.53-2.55A3.55,3.55,0,0,1,137.33,204.26Zm-71.3-25a4.06,4.06,0,0,0,.85.62,11.44,11.44,0,0,0,1.79.78,29.38,29.38,0,0,0,3.55.91,66.2,66.2,0,0,0,7.09.94,137.42,137.42,0,0,0,14.2.31c4.72-.13,9.44-.45,14.12-1,1.38-.16,2.75-.36,4.11-.59.82-.12,1.64-.23,2.46-.38a28.37,28.37,0,0,0,3.48-.83,10.65,10.65,0,0,0,1.68-.7,3.83,3.83,0,0,0,.59-.4,58.21,58.21,0,0,1-.78,9.83,17.11,17.11,0,0,1-1.77,5,11.92,11.92,0,0,1-3.5,3.84,23.64,23.64,0,0,1-10,3.53,72.15,72.15,0,0,1-10.92.71,72.24,72.24,0,0,1-10.92-.71,23.64,23.64,0,0,1-10-3.53,11.92,11.92,0,0,1-3.5-3.84,17.42,17.42,0,0,1-1.78-5A58.15,58.15,0,0,1,66,179.21Z"/><path d="M89.33,212.43a180,180,0,0,1-21.39-1.16A90.39,90.39,0,0,1,55.75,209a36.44,36.44,0,0,1-6-2.08,13.89,13.89,0,0,1-2.88-1.72c-.16-.13-.31-.27-.47-.42l-.33-.34a5.4,5.4,0,0,1-.5-.62,4.05,4.05,0,0,1-.7-2.11,4,4,0,0,1,.7-2.13,6.6,6.6,0,0,1,.5-.63l.33-.33c.15-.14.31-.29.47-.42a13.89,13.89,0,0,1,2.88-1.72,37.3,37.3,0,0,1,6-2.08,84.91,84.91,0,0,1,10.58-2,21.7,21.7,0,0,1-.87-3.51,61.93,61.93,0,0,1-.39-10.24v-.72a1.87,1.87,0,0,1,0-.25,2.4,2.4,0,0,1,.75-1.65,4.49,4.49,0,0,1,1-.71,10.77,10.77,0,0,1,1.83-.8,30.58,30.58,0,0,1,3.58-.93,71.05,71.05,0,0,1,7.12-.94,135.22,135.22,0,0,1,14.23-.31c4.93.14,9.69.48,14.14,1,2.59.31,4.88.68,7,1.13a27.29,27.29,0,0,1,3.44.93,9.44,9.44,0,0,1,1.66.74,3.39,3.39,0,0,1,.87.7l.2.24-.24.12-.16.19-.19-.23a3.25,3.25,0,0,0-.74-.58,10,10,0,0,0-1.58-.67,25.68,25.68,0,0,0-3.38-.87,66.44,66.44,0,0,0-7-.92,132.54,132.54,0,0,0-14.06-.3c-4.86.13-9.57.47-14,1-2.51.3-4.75.66-6.86,1.11a26.14,26.14,0,0,0-3.26.88,9.42,9.42,0,0,0-1.4.61l-.32.22a2.54,2.54,0,0,0,.32.21,8,8,0,0,0,1.4.62,27.13,27.13,0,0,0,3.26.88c2,.44,4.29.8,6.86,1.1,4.38.55,9.09.89,14,1a135.67,135.67,0,0,0,13.91-.29l.62-.08,1.46-.12c2-.21,3.58-.44,5-.73a29.48,29.48,0,0,0,3.39-.87,10.92,10.92,0,0,0,1.32-.56,3.63,3.63,0,0,0,1.13-.9s0,0,0-.05l0-.09.07,0,.39-.58v.49l.18,0-.18.37v.64a60.72,60.72,0,0,1-.38,10.23,19.69,19.69,0,0,1-1.2,4.38,91.46,91.46,0,0,1,9.68,2,37,37,0,0,1,5.81,2.06A12.5,12.5,0,0,1,137.5,199a3.82,3.82,0,0,1,1.62,2.72h0a3.84,3.84,0,0,1-1.62,2.73,12.51,12.51,0,0,1-2.67,1.61,35.93,35.93,0,0,1-5.8,2.06,96.68,96.68,0,0,1-12,2.41,191.49,191.49,0,0,1-24.47,1.86ZM89.1,172.8c-3.57,0-6.75.12-9.77.36a70.41,70.41,0,0,0-7.07.93,29.93,29.93,0,0,0-3.51.91,11,11,0,0,0-1.74.76,4.11,4.11,0,0,0-.87.63,1.89,1.89,0,0,0-.61,1.3,1.1,1.1,0,0,0,0,.16v.82A60.93,60.93,0,0,0,66,188.83a19.11,19.11,0,0,0,1,3.7l.1.3-.3,0a84.74,84.74,0,0,0-10.83,2A36,36,0,0,0,50,197a13.21,13.21,0,0,0-2.78,1.65c-.15.12-.29.26-.44.4l-.29.29a4.18,4.18,0,0,0-.46.58,3.47,3.47,0,0,0-.62,1.85,3.43,3.43,0,0,0,.62,1.83,4.18,4.18,0,0,0,.45.57l.31.31c.14.13.28.27.43.39A13.29,13.29,0,0,0,50,206.5a36.29,36.29,0,0,0,5.89,2.05A90.23,90.23,0,0,0,68,210.77a187.31,187.31,0,0,0,24.5,1.14c5.78-.1,11.21-.39,16.41-.89-5.09.34-10.52.47-16.41.39a190.49,190.49,0,0,1-24.34-1.84,98,98,0,0,1-11.91-2.39,36.27,36.27,0,0,1-5.65-2,11.7,11.7,0,0,1-2.46-1.49,2.82,2.82,0,0,1-1.25-1.95,2.87,2.87,0,0,1,1.26-2,11.2,11.2,0,0,1,2.46-1.48,33.9,33.9,0,0,1,5.64-2A94.92,94.92,0,0,1,67.33,194l.18,0,.11.22a13,13,0,0,0,3.67,4.38,15.63,15.63,0,0,0,2.91,1.78h0a22,22,0,0,0,2.11.89,34.44,34.44,0,0,0,5.48,1.41,75.33,75.33,0,0,0,22.37,0,33.65,33.65,0,0,0,5.48-1.42l1-.39.14-.06.12.1a.94.94,0,0,1-.06,1.67,5.05,5.05,0,0,1-1,.62,14.75,14.75,0,0,1-2.34.84,37.29,37.29,0,0,1-4.93,1,81.43,81.43,0,0,1-10,.79,75.7,75.7,0,0,0,10-.44,39.13,39.13,0,0,0,5-.92,15.89,15.89,0,0,0,2.43-.83,5.37,5.37,0,0,0,1.13-.68,1.66,1.66,0,0,0,.73-1.24,1.42,1.42,0,0,0-.37-.87l-.21-.25.29-.14a16.19,16.19,0,0,0,3.09-1.85,13.14,13.14,0,0,0,3.67-4.38,3.52,3.52,0,0,0,.18-.4l.18-.4h0l0-.05a18.79,18.79,0,0,0,1.29-4.55,59.75,59.75,0,0,0,.38-10.15v0l-.22.19h0a58.5,58.5,0,0,1-.78,9.87,17.51,17.51,0,0,1-1.8,5.1,12.2,12.2,0,0,1-3.57,3.92c-2.53,1.77-5.74,2.9-10.1,3.58a71.81,71.81,0,0,1-10.79.71h-.47A71.16,71.16,0,0,1,82,201.32a23.56,23.56,0,0,1-10.11-3.57,12.13,12.13,0,0,1-3.57-3.93,17.4,17.4,0,0,1-1.8-5.1,56.3,56.3,0,0,1-.78-9.5v-.6l.43.41a4.21,4.21,0,0,0,.81.59,11.1,11.1,0,0,0,1.75.75,28.92,28.92,0,0,0,3.51.91,67.22,67.22,0,0,0,7.06.93,137.5,137.5,0,0,0,14.17.31c3.23-.09,6.38-.27,9.43-.53-2.88.1-6,.11-9.43,0-4.92-.13-9.64-.47-14-1-2.59-.31-4.84-.67-6.91-1.11a27.88,27.88,0,0,1-3.31-.9,9.71,9.71,0,0,1-1.49-.65,2.28,2.28,0,0,1-.56-.42.27.27,0,0,1-.07-.08l-.12-.15.12-.15a.58.58,0,0,1,.08-.1,2.59,2.59,0,0,1,.55-.4,10.37,10.37,0,0,1,1.48-.66,28.23,28.23,0,0,1,3.32-.89c2.13-.45,4.39-.81,6.91-1.11,4.44-.55,9.17-.89,14-1,3.5-.09,6.62-.08,9.52,0-3.07-.27-6.25-.45-9.52-.54C92,172.82,90.5,172.8,89.1,172.8ZM67.23,194.55a94.27,94.27,0,0,0-10.85,2.22,34.79,34.79,0,0,0-5.56,2,10.92,10.92,0,0,0-2.36,1.42,2.43,2.43,0,0,0-1.07,1.58,2.46,2.46,0,0,0,1.06,1.56,11.11,11.11,0,0,0,2.37,1.42,33.59,33.59,0,0,0,5.56,2,95.26,95.26,0,0,0,11.85,2.37,189.52,189.52,0,0,0,24.28,1.84,183.23,183.23,0,0,0,24.37-1.13,89.57,89.57,0,0,0,12-2.19,35.39,35.39,0,0,0,5.73-2,11.84,11.84,0,0,0,2.57-1.52h0a2.61,2.61,0,0,0,0-4.66,12.62,12.62,0,0,0-2.58-1.53,35.31,35.31,0,0,0-5.73-2A83,83,0,0,0,119,194l0,0c-.06.15-.12.29-.19.44A13.64,13.64,0,0,1,115,199a16.42,16.42,0,0,1-2.9,1.77,1.83,1.83,0,0,1,.3.94,2.16,2.16,0,0,1-.92,1.64,6.08,6.08,0,0,1-1.23.73,15.25,15.25,0,0,1-2.51.86,38.43,38.43,0,0,1-5.06.94,77.83,77.83,0,0,1-10.18.44,82.44,82.44,0,0,1-10.13-.79,39.84,39.84,0,0,1-5-1,15.14,15.14,0,0,1-2.42-.87,5,5,0,0,1-1.13-.69,1.69,1.69,0,0,1-.72-1.24h0a1.56,1.56,0,0,1,.53-1.08A15.86,15.86,0,0,1,71,199,13.64,13.64,0,0,1,67.23,194.55Zm6.38,7.18a1.25,1.25,0,0,0,.54.85,4.85,4.85,0,0,0,1,.6,14.5,14.5,0,0,0,2.34.81,40,40,0,0,0,4.93.91,75.43,75.43,0,0,0,10,.43,81.5,81.5,0,0,0,10-.78,38,38,0,0,0,4.87-1,14.65,14.65,0,0,0,2.25-.81,4.93,4.93,0,0,0,.93-.56.8.8,0,0,0,.35-.48.62.62,0,0,0-.2-.32c-.29.12-.58.24-.88.34a33.11,33.11,0,0,1-5.56,1.44,76,76,0,0,1-22.53,0,35,35,0,0,1-5.57-1.44,20.49,20.49,0,0,1-2-.85A1.24,1.24,0,0,0,73.61,201.73Zm-7.31-22a52.17,52.17,0,0,0,.75,8.87,16.84,16.84,0,0,0,1.75,5,11.62,11.62,0,0,0,3.42,3.76c2.47,1.72,5.61,2.83,9.89,3.49a73,73,0,0,0,10.88.7h.17a70.6,70.6,0,0,0,10.71-.71c4.29-.66,7.43-1.77,9.89-3.49a11.41,11.41,0,0,0,3.42-3.76,17,17,0,0,0,1.75-4.95,55.23,55.23,0,0,0,.76-9.29l-.2.13a11.1,11.1,0,0,1-1.73.71,30.27,30.27,0,0,1-3.51.85c-.75.13-1.49.24-2.23.34l-.25,0c-1.47.24-2.81.44-4.11.59-4.46.55-9.22.9-14.14,1a135.84,135.84,0,0,1-14.23-.31,69.1,69.1,0,0,1-7.12-.94,30.72,30.72,0,0,1-3.58-.92,11.63,11.63,0,0,1-1.83-.8C66.62,180,66.46,179.87,66.3,179.75Z"/><path d="M284,201.73a3.56,3.56,0,0,0,1.53,2.55,12.57,12.57,0,0,0,2.61,1.57,36,36,0,0,0,5.77,2.05,97.81,97.81,0,0,0,12,2.41,195.77,195.77,0,0,0,24.44,1.85A188.25,188.25,0,0,0,354.9,211a92.13,92.13,0,0,0,12.16-2.23,36.3,36.3,0,0,0,5.93-2.07,13.52,13.52,0,0,0,2.83-1.68c.22-.18.44-.4.65-.6a5.43,5.43,0,0,0,.6-.73,3.3,3.3,0,0,0,0-4,7.22,7.22,0,0,0-.59-.73c-.22-.2-.43-.41-.66-.59a13.16,13.16,0,0,0-2.83-1.69,36.3,36.3,0,0,0-5.93-2.07,88.19,88.19,0,0,0-10.85-2,20.86,20.86,0,0,0,1-3.75,64.28,64.28,0,0,0,.37-10.9,1.26,1.26,0,0,0,0-.28,2.08,2.08,0,0,0-.68-1.47,3.88,3.88,0,0,0-.92-.68,10.68,10.68,0,0,0-1.79-.78,30.68,30.68,0,0,0-3.54-.91,68.84,68.84,0,0,0-7.09-.94,137.48,137.48,0,0,0-14.2-.31c-4.73.13-9.44.45-14.13,1-2.34.28-4.67.63-7,1.12a30.62,30.62,0,0,0-3.41.92,10.66,10.66,0,0,0-1.62.72,3.09,3.09,0,0,0-.8.65h0a3.23,3.23,0,0,1,.8-.63,10,10,0,0,1,1.62-.7,28.59,28.59,0,0,1,3.42-.88,68.55,68.55,0,0,1,7-.92,138.19,138.19,0,0,1,14.1-.3c4.69.12,9.38.45,14,1,2.32.27,4.63.63,6.88,1.11a26.46,26.46,0,0,1,3.29.88,8.68,8.68,0,0,1,1.44.64,2.5,2.5,0,0,1,.5.36l.06.07a.17.17,0,0,1-.06.06,2,2,0,0,1-.5.37,9.6,9.6,0,0,1-1.44.64,28.33,28.33,0,0,1-3.29.88c-2.25.48-4.56.84-6.88,1.11-4.64.58-9.33.9-14,1a138,138,0,0,1-13.94-.29l-.63-.08-1.45-.12c-1.7-.18-3.4-.4-5.07-.73a30.62,30.62,0,0,1-3.42-.88,11.57,11.57,0,0,1-1.36-.58,3.69,3.69,0,0,1-1.24-1,.64.64,0,0,1,0-.07h0s0,0,0,.06l0,0h0a64.62,64.62,0,0,0,.37,10.84,19.26,19.26,0,0,0,1.3,4.6,94.39,94.39,0,0,0-10,2.09,36,36,0,0,0-5.77,2.05,12.61,12.61,0,0,0-2.61,1.58,3.54,3.54,0,0,0-1.53,2.54,3.56,3.56,0,0,1,1.54-2.53,12.6,12.6,0,0,1,2.62-1.56,35.8,35.8,0,0,1,5.77-2A83.43,83.43,0,0,1,304,193.71c.09.21.18.42.28.63a13.47,13.47,0,0,0,3.75,4.47,16.88,16.88,0,0,0,3.13,1.88,1.67,1.67,0,0,0-.43,1,2,2,0,0,0,.82,1.43,5.38,5.38,0,0,0,1.19.7,14.34,14.34,0,0,0,2.46.85,38,38,0,0,0,5,.93,76.39,76.39,0,0,0,10.14.44,81.18,81.18,0,0,0,10.1-.79,39.93,39.93,0,0,0,5-1,14.39,14.39,0,0,0,2.38-.86,5.17,5.17,0,0,0,1.08-.65,1.47,1.47,0,0,0,.63-1.06,1.45,1.45,0,0,1-.64,1,4.73,4.73,0,0,1-1.08.64,14.66,14.66,0,0,1-2.39.82,38,38,0,0,1-5,.91,75.42,75.42,0,0,1-10.08.44,78.08,78.08,0,0,1-10-.79,38.1,38.1,0,0,1-4.89-1,13.92,13.92,0,0,1-2.3-.83,4.47,4.47,0,0,1-1-.59,1,1,0,0,1-.44-.67,1,1,0,0,1,.39-.61c.34.14.68.28,1,.4a34.69,34.69,0,0,0,5.52,1.42,75.42,75.42,0,0,0,22.45,0,33.69,33.69,0,0,0,5.52-1.43,19.67,19.67,0,0,0,2.13-.9l.12.08a1.47,1.47,0,0,1,.64,1,1.45,1.45,0,0,0-.63-1l-.11-.08a16,16,0,0,0,3-1.8,13.19,13.19,0,0,0,3.74-4.46l0-.06a92.42,92.42,0,0,1,11.05,2.25,34.84,34.84,0,0,1,5.61,2,11.51,11.51,0,0,1,2.41,1.45,1.92,1.92,0,0,1,0,3.53,11.51,11.51,0,0,1-2.41,1.45,34.84,34.84,0,0,1-5.61,2,96.27,96.27,0,0,1-11.87,2.38,191.56,191.56,0,0,1-24.32,1.84A186.18,186.18,0,0,1,306,210a92.39,92.39,0,0,1-12-2.2,35.84,35.84,0,0,1-5.77-2,12.6,12.6,0,0,1-2.62-1.56A3.55,3.55,0,0,1,284,201.73Zm72.06-13.06a17.11,17.11,0,0,1-1.77,5,11.92,11.92,0,0,1-3.5,3.84,23.63,23.63,0,0,1-10,3.53,84.25,84.25,0,0,1-21.83,0,23.68,23.68,0,0,1-10-3.53,11.89,11.89,0,0,1-3.49-3.84,17.42,17.42,0,0,1-1.78-5,60.36,60.36,0,0,1-.78-9.83,4.38,4.38,0,0,0,.59.4,11.17,11.17,0,0,0,1.69.7,28.22,28.22,0,0,0,3.47.83c.82.15,1.65.26,2.47.38,1.36.23,2.73.43,4.1.59,4.69.58,9.4.9,14.13,1a137.48,137.48,0,0,0,14.2-.31,66.2,66.2,0,0,0,7.09-.94,28.76,28.76,0,0,0,3.54-.91,10.68,10.68,0,0,0,1.79-.78,3.81,3.81,0,0,0,.85-.62A56,56,0,0,1,356.06,188.67Z"/><path d="M333.53,212.43l-3.17,0a191.79,191.79,0,0,1-24.48-1.86,96.88,96.88,0,0,1-12-2.41,35.93,35.93,0,0,1-5.8-2.06,12.51,12.51,0,0,1-2.67-1.61,3.81,3.81,0,0,1-1.62-2.73h0a3.83,3.83,0,0,1,1.62-2.73,12.93,12.93,0,0,1,2.67-1.61,36.92,36.92,0,0,1,5.8-2.06,91.14,91.14,0,0,1,9.69-2,19.9,19.9,0,0,1-1.2-4.37,62,62,0,0,1-.39-10.24l0-.65-.16-.37.16,0v-.46l.5.74a3.75,3.75,0,0,0,1.15.91,11.76,11.76,0,0,0,1.31.55,29,29,0,0,0,3.39.87c1.46.29,3.06.52,5,.73l1.45.12.64.08a135.33,135.33,0,0,0,13.9.29c4.91-.13,9.62-.47,14-1,2.57-.31,4.82-.67,6.86-1.11a27.13,27.13,0,0,0,3.26-.88,8.39,8.39,0,0,0,1.4-.62,2.54,2.54,0,0,0,.32-.21,2.49,2.49,0,0,0-.32-.22,10.11,10.11,0,0,0-1.41-.62,28,28,0,0,0-3.25-.87c-2.11-.45-4.36-.81-6.86-1.11-4.43-.54-9.14-.88-14-1a132.8,132.8,0,0,0-14.07.3,69.86,69.86,0,0,0-7,.91,27.7,27.7,0,0,0-3.38.88,9.44,9.44,0,0,0-1.57.68,2.77,2.77,0,0,0-.74.57l-.16.18-.4-.3.17-.2a3.53,3.53,0,0,1,.86-.7,10.14,10.14,0,0,1,1.66-.74,28,28,0,0,1,3.45-.93c2.12-.45,4.41-.82,7-1.13,4.45-.55,9.21-.89,14.15-1a135.36,135.36,0,0,1,14.23.31,71.44,71.44,0,0,1,7.12.94,29.86,29.86,0,0,1,3.57.93,10.51,10.51,0,0,1,1.84.79,4.64,4.64,0,0,1,1,.72,2.31,2.31,0,0,1,.75,1.64,1.06,1.06,0,0,1,0,.27V178l0,.66a60.76,60.76,0,0,1-.4,10.23,19.38,19.38,0,0,1-.87,3.51,84.55,84.55,0,0,1,10.58,2,36.44,36.44,0,0,1,6,2.08,13.89,13.89,0,0,1,2.88,1.72,6,6,0,0,1,.46.42l.33.33a4.67,4.67,0,0,1,.51.63,3.56,3.56,0,0,1,0,4.25,5.2,5.2,0,0,1-.5.62l-.32.33c-.16.14-.31.29-.48.42A13.59,13.59,0,0,1,373.1,207a36.67,36.67,0,0,1-6,2.08,90.87,90.87,0,0,1-12.2,2.24A180.1,180.1,0,0,1,333.53,212.43ZM314,211c5.2.5,10.62.79,16.4.89a187.39,187.39,0,0,0,24.5-1.14A90.23,90.23,0,0,0,367,208.55a36.29,36.29,0,0,0,5.89-2.05,13.24,13.24,0,0,0,2.77-1.66,5.6,5.6,0,0,0,.45-.4l.29-.29a6,6,0,0,0,.46-.57,3.59,3.59,0,0,0,.62-1.86,3.49,3.49,0,0,0-.62-1.83,5.09,5.09,0,0,0-.46-.58l-.3-.3c-.14-.13-.29-.27-.44-.39a13.16,13.16,0,0,0-2.77-1.65,36.13,36.13,0,0,0-5.9-2.06,84.55,84.55,0,0,0-10.82-2l-.31,0,.11-.3a19.11,19.11,0,0,0,.95-3.7,60.77,60.77,0,0,0,.39-10.15l0-.71,0-.12a.88.88,0,0,0,0-.17,1.8,1.8,0,0,0-.61-1.29,3.83,3.83,0,0,0-.86-.63,10.27,10.27,0,0,0-1.75-.76,28.92,28.92,0,0,0-3.51-.91,69.66,69.66,0,0,0-7.07-.93,134,134,0,0,0-14.17-.31c-3.26.09-6.45.27-9.51.54,2.9-.1,6-.11,9.51,0,4.88.13,9.6.47,14.05,1,2.52.3,4.78.66,6.91,1.11a27.5,27.5,0,0,1,3.31.89,10.06,10.06,0,0,1,1.49.66,2.76,2.76,0,0,1,.56.42l.07.08.11.15-.11.15-.08.09a2.22,2.22,0,0,1-.55.4,9.35,9.35,0,0,1-1.48.66,28.63,28.63,0,0,1-3.32.9c-2.06.44-4.32.8-6.91,1.11-4.4.55-9.12.89-14,1-3.47.08-6.55.07-9.43,0,3.05.26,6.2.44,9.43.53a134.73,134.73,0,0,0,14.17-.31,67.92,67.92,0,0,0,7.06-.93,27.18,27.18,0,0,0,3.51-.91,9.53,9.53,0,0,0,1.75-.76,3.71,3.71,0,0,0,.8-.58l.44-.41,0,.6a55.39,55.39,0,0,1-.77,9.5h0a17.4,17.4,0,0,1-1.8,5.1,12,12,0,0,1-3.58,3.93c-2.53,1.76-5.74,2.9-10.1,3.57a71.11,71.11,0,0,1-11,.71,74.07,74.07,0,0,1-10.95-.71c-4.36-.68-7.57-1.81-10.1-3.58a12.09,12.09,0,0,1-3.57-3.92,17.22,17.22,0,0,1-1.8-5.1,59.51,59.51,0,0,1-.79-9.87h0l-.22-.18h0a60.81,60.81,0,0,0,.39,10.15,19,19,0,0,0,1.28,4.55l0,.05h0l.18.4a2.87,2.87,0,0,0,.18.4,13.14,13.14,0,0,0,3.67,4.38,16.19,16.19,0,0,0,3.09,1.85l.29.14-.21.25a1.42,1.42,0,0,0-.37.89,1.66,1.66,0,0,0,.73,1.22,5.37,5.37,0,0,0,1.13.68,15.53,15.53,0,0,0,2.43.83,39.13,39.13,0,0,0,5,.92,75.7,75.7,0,0,0,10,.44,81.27,81.27,0,0,1-10-.79,37.29,37.29,0,0,1-4.93-1,14.75,14.75,0,0,1-2.34-.84,4.72,4.72,0,0,1-1-.63,1.19,1.19,0,0,1-.53-.86,1.16,1.16,0,0,1,.48-.8l.12-.1.14.06c.33.13.66.27,1,.39a33.25,33.25,0,0,0,5.49,1.42,75.26,75.26,0,0,0,22.36,0,34.44,34.44,0,0,0,5.48-1.41,20.84,20.84,0,0,0,2.1-.89l.14-.07a16.26,16.26,0,0,0,2.8-1.71,13.18,13.18,0,0,0,3.67-4.39l.08-.15.21,0a95.35,95.35,0,0,1,11.08,2.26,34.22,34.22,0,0,1,5.64,2,12,12,0,0,1,2.47,1.48,2.17,2.17,0,0,1,0,3.93,11.87,11.87,0,0,1-2.46,1.48,35.81,35.81,0,0,1-5.64,2,98.41,98.41,0,0,1-11.91,2.39,190.64,190.64,0,0,1-24.34,1.84C324.48,211.48,319.06,211.36,314,211Zm-29.72-9.29a3.33,3.33,0,0,0,1.44,2.33,11.78,11.78,0,0,0,2.58,1.53,35.07,35.07,0,0,0,5.73,2,89.57,89.57,0,0,0,12,2.19,183.31,183.31,0,0,0,24.37,1.13,189.66,189.66,0,0,0,24.28-1.84,95.63,95.63,0,0,0,11.85-2.37,34.79,34.79,0,0,0,5.56-2,11.61,11.61,0,0,0,2.36-1.42,1.69,1.69,0,0,0,0-3.15,11.61,11.61,0,0,0-2.36-1.42,35.14,35.14,0,0,0-5.56-2,94.27,94.27,0,0,0-10.85-2.22,13.54,13.54,0,0,1-3.76,4.45,15.36,15.36,0,0,1-2.65,1.65,1.56,1.56,0,0,1,.53,1.07h0A1.72,1.72,0,0,1,349,203a5.26,5.26,0,0,1-1.13.69,15.14,15.14,0,0,1-2.42.87,40.21,40.21,0,0,1-5,1,82.28,82.28,0,0,1-10.13.79,77.74,77.74,0,0,1-10.18-.44,38.11,38.11,0,0,1-5.06-.94,15.25,15.25,0,0,1-2.51-.86,6,6,0,0,1-1.24-.74,2.14,2.14,0,0,1-.91-1.61,1.84,1.84,0,0,1,.3-1,16.53,16.53,0,0,1-2.91-1.77,13.83,13.83,0,0,1-3.81-4.55c-.07-.14-.13-.29-.19-.43l0-.05a83.83,83.83,0,0,0-9.84,1.9,35.22,35.22,0,0,0-5.72,2,12.25,12.25,0,0,0-2.57,1.53A3.32,3.32,0,0,0,284.25,201.73Zm27.92-.32a.64.64,0,0,0-.2.33.79.79,0,0,0,.34.46,4.54,4.54,0,0,0,.94.57,14.28,14.28,0,0,0,2.25.81,38,38,0,0,0,4.87,1,81.5,81.5,0,0,0,10,.78,75.51,75.51,0,0,0,10-.43,40,40,0,0,0,4.93-.91,14.5,14.5,0,0,0,2.34-.81,4.52,4.52,0,0,0,1-.6.92.92,0,0,0,0-1.68,19.65,19.65,0,0,1-2,.85,34.12,34.12,0,0,1-5.56,1.43,70.66,70.66,0,0,1-11.26.85,71.77,71.77,0,0,1-11.27-.84,33.49,33.49,0,0,1-5.57-1.44C312.75,201.65,312.46,201.53,312.17,201.41Zm17.71.12h.3a71.71,71.71,0,0,0,10.58-.7c4.27-.66,7.42-1.77,9.89-3.49a11.67,11.67,0,0,0,3.42-3.77,17,17,0,0,0,1.75-4.95h0a53.3,53.3,0,0,0,.75-8.87c-.16.12-.32.21-.46.3a11.63,11.63,0,0,1-1.83.8,30.72,30.72,0,0,1-3.58.92,69.1,69.1,0,0,1-7.12.94,138.7,138.7,0,0,1-14.23.31c-4.92-.13-9.68-.48-14.15-1-1.29-.15-2.63-.35-4.11-.59l-.3-.05c-.72-.1-1.45-.2-2.17-.33a30.27,30.27,0,0,1-3.51-.85,10.39,10.39,0,0,1-1.73-.71l-.21-.13a56.15,56.15,0,0,0,.77,9.29,16.4,16.4,0,0,0,1.75,4.95,11.5,11.5,0,0,0,3.41,3.76c2.47,1.72,5.61,2.83,9.9,3.49A72.89,72.89,0,0,0,329.88,201.53Z"/><path d="M88,135.58a12.27,12.27,0,0,0-3.16,7.78,10.63,10.63,0,0,0,.86,4,18.67,18.67,0,0,0,1,1.83l1.22,1.76a15.24,15.24,0,0,1,3.1,8.74,12.68,12.68,0,0,1-3,8.52,15.77,15.77,0,0,0,1.42-8.42,6.1,6.1,0,0,0-.17-1c-.08-.34-.12-.69-.22-1a13.94,13.94,0,0,0-.69-2,17.09,17.09,0,0,0-2.09-3.63L85,150.16a10.64,10.64,0,0,1-.55-1.06,7.69,7.69,0,0,1-.49-1.09,11.05,11.05,0,0,1-.65-4.74A10.62,10.62,0,0,1,88,135.58Z"/><path d="M98.14,141.16a9.9,9.9,0,0,0-2.82,6.4,9.61,9.61,0,0,0,2.7,6.12,12.17,12.17,0,0,1,2.9,7.36,9.8,9.8,0,0,1-2.78,7.13,12.23,12.23,0,0,0,1.22-7,10.24,10.24,0,0,0-1-3.28,13.78,13.78,0,0,0-1.88-2.93l-1.16-1.6a13.43,13.43,0,0,1-1-1.8,8.37,8.37,0,0,1-.59-4.08A8.51,8.51,0,0,1,98.14,141.16Z"/><path d="M334.88,135.58a10.65,10.65,0,0,1,4.71,7.69,10.91,10.91,0,0,1-.66,4.74,6.67,6.67,0,0,1-.48,1.09,10.64,10.64,0,0,1-.55,1.06l-1.27,1.93a16.67,16.67,0,0,0-2.09,3.63,15.38,15.38,0,0,0-.7,2c-.1.33-.13.68-.21,1a6.1,6.1,0,0,0-.17,1,15.77,15.77,0,0,0,1.42,8.42,12.74,12.74,0,0,1-3-8.52,15.32,15.32,0,0,1,3.11-8.74l1.22-1.76c.34-.59.67-1.21.95-1.83a10.63,10.63,0,0,0,.86-4A12.32,12.32,0,0,0,334.88,135.58Z"/><path d="M324.73,141.16a8.51,8.51,0,0,1,4.37,6.3,8.37,8.37,0,0,1-.59,4.08,13.43,13.43,0,0,1-.95,1.8l-1.16,1.6a13.78,13.78,0,0,0-1.88,2.93,10.52,10.52,0,0,0-1,3.28,12.15,12.15,0,0,0,1.23,7A9.76,9.76,0,0,1,322,161a12.17,12.17,0,0,1,2.9-7.36,9.66,9.66,0,0,0,2.7-6.12A9.9,9.9,0,0,0,324.73,141.16Z"/></g></svg>